<?xml version="1.0" encoding="UTF-8" standalone="no"?>
<!-- Created with Inkscape (http://www.inkscape.org/) -->

<svg
   xmlns:dc="http://purl.org/dc/elements/1.1/"
   xmlns:cc="http://creativecommons.org/ns#"
   xmlns:rdf="http://www.w3.org/1999/02/22-rdf-syntax-ns#"
   xmlns:svg="http://www.w3.org/2000/svg"
   xmlns="http://www.w3.org/2000/svg"
   xmlns:sodipodi="http://sodipodi.sourceforge.net/DTD/sodipodi-0.dtd"
   xmlns:inkscape="http://www.inkscape.org/namespaces/inkscape"
   width="232.09914mm"
   height="232.26949mm"
   viewBox="0 0 232.09914 232.26949"
   version="1.1"
   id="svg8"
   inkscape:version="0.92.3 (2405546, 2018-03-11)"
   sodipodi:docname="Rust_Mx_calaverita.svg">
  <defs
     id="defs2">
    <clipPath
       id="clipPath4690"
       clipPathUnits="userSpaceOnUse">
      <path
         inkscape:connector-curvature="0"
         id="path4688"
         d="M 0,780 H 1096 V 0 H 0 Z" />
    </clipPath>
  </defs>
  <sodipodi:namedview
     id="base"
     pagecolor="#ffffff"
     bordercolor="#666666"
     borderopacity="1.0"
     inkscape:pageopacity="0.0"
     inkscape:pageshadow="2"
     inkscape:zoom="0.35"
     inkscape:cx="575.4982"
     inkscape:cy="323.52025"
     inkscape:document-units="mm"
     inkscape:current-layer="layer1"
     showgrid="false"
     fit-margin-top="0"
     fit-margin-left="0"
     fit-margin-right="0"
     fit-margin-bottom="0"
     inkscape:window-width="1366"
     inkscape:window-height="704"
     inkscape:window-x="0"
     inkscape:window-y="27"
     inkscape:window-maximized="1" />
  <metadata
     id="metadata5">
    <rdf:RDF>
      <cc:Work
         rdf:about="">
        <dc:format>image/svg+xml</dc:format>
        <dc:type
           rdf:resource="http://purl.org/dc/dcmitype/StillImage" />
        <dc:title />
      </cc:Work>
    </rdf:RDF>
  </metadata>
  <g
     inkscape:label="Layer 1"
     inkscape:groupmode="layer"
     id="layer1"
     transform="translate(15.507903,-31.942634)">
    <g
       id="g168">
      <g
         inkscape:export-ydpi="257.80099"
         inkscape:export-xdpi="257.80099"
         inkscape:export-filename="/home/mayela/Documentos/RustMX/material grafico/rustMX.png"
         id="g113">
        <g
           transform="translate(195.33997,66.100594)"
           id="layer1-4"
           inkscape:label="Capa 1">
          <path
             inkscape:connector-curvature="0"
             id="path2495"
             d="m -94.634766,-35.271484 c -42.391534,0.501122 -84.288134,24.488993 -104.604724,61.921716 -16.24593,34.048089 -13.13876,73.166044 -7.16714,109.279778 1.29091,8.11269 2.70845,16.20476 4.09218,24.30241 15.53049,7.52025 33.62971,7.10146 50.05652,10.83789 2.83395,0.74968 7.26616,0.49129 6.39855,4.59961 0.97012,6.56303 0.87112,15.01756 6.44336,19.42969 20.61918,3.57448 41.716251,0.79425 62.521489,1.60742 9.901154,-0.53908 20.679258,1.14113 29.898437,-3.13672 5.339204,-6.2302 3.582523,-15.46205 3.058594,-22.96289 18.79965,-2.13524 37.9915008,-4.07085 55.787109,-10.88672 7.28146,-27.40117 9.396266,-56.03339 8.971932,-84.303729 C 19.725293,41.842768 6.2638779,7.11307 -21.355469,-13.353516 -42.167968,-29.201725 -68.780234,-35.706804 -94.634766,-35.271484 Z"
             style="opacity:1;fill:#aa3f55;fill-opacity:1;stroke:none;stroke-width:0.69741976;stroke-linecap:round;stroke-miterlimit:4;stroke-dasharray:none;paint-order:markers stroke fill" />
          <path
             sodipodi:nodetypes="scccsccccss"
             inkscape:connector-curvature="0"
             id="path4635"
             d="m 18.99821,83.215319 c 0,20.059541 -2.73127,54.180601 -8.80685,75.012981 -18.09174,7.41071 -56.41202,10.57796 -56.41202,10.57796 0,0 3.18941,18.48324 -2.16572,23.3257 -5.25828,3.11633 -24.28173,2.53331 -41.542707,2.53331 -14.508223,0 -39.118833,1.06229 -49.024823,-1.51133 -4.72822,-4.98581 -4.58805,-18.18056 -5.49017,-22.0979 -11.28559,-4.21174 -45.09052,-5.88221 -56.0629,-12.11573 -8.08254,-47.1079 -16.58238,-92.281031 4.46796,-134.322594 21.66114,-35.570011 61.13549,-57.904971 103.399253,-57.904981 66.874707,0 111.637987,44.018721 111.637977,116.502584 z"
             style="opacity:1;fill:#f9f1e2;fill-opacity:1;stroke:none;stroke-width:0.69741976;stroke-linecap:round;stroke-miterlimit:4;stroke-dasharray:none;paint-order:markers stroke fill" />
          <path
             sodipodi:nodetypes="ccccccccc"
             inkscape:connector-curvature="0"
             style="fill:#7e67a2;fill-opacity:1;stroke:none;stroke-width:0.30415776px;stroke-linecap:butt;stroke-linejoin:miter;stroke-opacity:1"
             d="m 17.85145,102.10304 c -0.84082,25.28142 -4.98,39.62367 -7.66009,56.12526 -6.49284,3.89926 -21.43652,6.01292 -34.33157,8.08013 l -8.1692,-0.0977 c 3.39857,-10.23937 3.11496,-21.03211 26.41315,-25.01759 0,0 -9.58971,-12.44189 -3.22251,-18.20457 6.36719,-5.76269 11.46357,1.39578 11.46357,1.39578 0.2614,-10.4783 2.89551,-21.40613 10.82943,-22.48178 z"
             id="path4654" />
          <path
             sodipodi:nodetypes="ccccscc"
             inkscape:connector-curvature="0"
             style="opacity:1;fill:#eac100;fill-opacity:1;stroke:none;stroke-width:0.67832309;stroke-linecap:round;stroke-miterlimit:4;stroke-dasharray:none;paint-order:markers stroke fill"
             d="m 17.32881,112.08634 c -1.36984,16.12318 -4.92249,32.50423 -7.13745,46.14196 -6.41428,3.85208 -21.06841,5.96061 -33.85494,8.00417 2.84714,-8.6389 2.67098,-17.72362 22.32097,-21.08503 0,0 -8.1134,-10.52704 -2.72633,-15.40267 5.38711,-4.87564 9.69883,1.18132 9.69883,1.18132 0.22116,-8.86536 4.98627,-17.92968 11.69892,-18.83975 z"
             id="path4652" />
          <path
             inkscape:connector-curvature="0"
             id="path5982"
             d="m -57.29343,29.266937 c -2.58345,-2.782552 -3.17389,-7.72709 -1.43884,-12.049202 1.58857,-3.95719 5.96333,-8.033869 10.65214,-9.92632 5.89788,-2.380451 12.79517,-1.967849 19.62587,1.17402 1.06565,0.49017 3.10893,1.693791 4.75819,2.8029 4.34603,2.922681 7.23416,5.715321 11.48781,11.107981 1.63634,2.07449 2.48709,2.96784 3.73027,3.91703 2.64738,2.02134 5.53093,2.783699 8.40152,2.22123 3.22821,-0.632571 4.83063,-2.256042 4.84483,-4.908529 0.007,-1.135941 -0.89998,-2.874722 -1.46803,-2.81727 -0.53227,0.0538 -0.59559,0.20093 -0.59051,1.371798 0.004,1.154211 -0.4282,1.707581 -1.53835,1.965071 -0.98806,0.229169 -2.43344,-0.77289 -2.64071,-1.830821 -0.41461,-2.115889 3.10152,-4.28606 4.94372,-3.0513 0.81374,0.545561 1.94602,2.139641 2.25409,3.173791 0.67886,2.278931 -0.4985,4.813739 -2.81659,6.064031 -3.41952,1.844349 -6.23738,1.856848 -9.83218,0.0436 -1.92113,-0.969039 -4.40297,-2.99434 -6.41868,-5.238031 l -1.35257,-1.505497 0.20171,1.799539 c 0.3873,3.455498 -0.10831,5.974909 -1.61666,8.218451 -1.66076,2.47022 -4.67455,4.25759 -7.07092,4.19351 -4.27018,-0.11415 -8.32891,-4.75819 -7.78034,-8.902302 0.0971,-0.73355 0.3884,-1.369928 1.1363,-2.48234 0.88742,-1.319958 1.17957,-1.595779 2.48362,-2.344909 2.36704,-1.35976 3.70347,-1.03927 4.9485,1.18668 1.09728,1.96179 0.78439,3.642619 -0.88283,4.74236 -1.04015,0.686109 -1.89366,0.59019 -3.0617,-0.344051 -1.13751,-0.909828 -1.42594,-1.80289 -1.04421,-3.233298 l 0.23868,-0.894501 -0.7869,0.683879 c -1.08602,0.943811 -1.79963,2.434601 -1.85562,3.87663 -0.0663,1.707671 1.12123,3.840022 2.75953,4.954832 1.70153,1.15785 3.32229,1.51557 5.26041,1.16104 1.23693,-0.22627 1.85164,-0.48871 2.59854,-1.10947 1.97271,-1.63947 3.38492,-4.498272 3.55148,-7.189363 0.17301,-2.795518 -1.5304,-7.096749 -3.83178,-9.675489 -6.30044,-7.059758 -18.74755,-10.703701 -27.29393,-7.990409 -2.27258,0.72149 -4.96916,2.213038 -6.68631,3.69837 -1.75884,1.521409 -3.79332,4.63755 -4.3618,6.68084 -0.94865,3.40973 -0.69726,6.825221 0.64025,8.69873 0.87862,1.230738 1.82834,1.808951 2.75182,1.675371 0.77579,-0.112231 0.86005,-0.321821 0.55332,-1.376442 -0.23585,-0.810901 -0.19493,-1.01599 0.36349,-1.82194 0.72216,-1.042281 2.20522,-1.903579 3.36723,-1.955569 1.41953,-0.0634 2.76401,1.311611 3.04546,3.11486 0.30447,1.950691 -0.42748,3.293819 -2.22513,4.083091 -2.64322,1.16054 -5.83,0.37914 -8.00418,-1.962622 z"
             style="fill:#569685;fill-opacity:1;stroke:none;stroke-width:0.22473012" />
          <path
             inkscape:connector-curvature="0"
             id="path5980"
             d="m -11.68545,48.176619 c -0.10618,-0.59038 -0.35866,-1.49696 -0.56116,-2.01466 -0.32824,-0.83909 -0.30589,-1.06457 0.20592,-2.07817 0.72773,-1.44117 1.4195,-3.96431 1.38979,-5.06911 -0.0126,-0.46771 0.0538,-0.79887 0.14744,-0.7359 0.4171,0.28042 1.46189,3.235 1.95573,5.53056 l 0.54022,2.51128 -1.57927,1.43274 c -0.86862,0.78801 -1.65274,1.44714 -1.74248,1.46472 -0.0898,0.0177 -0.25005,-0.45106 -0.35619,-1.04146 z"
             style="fill:#7e67a2;fill-opacity:1;stroke:none;stroke-width:0.22473012" />
          <path
             inkscape:connector-curvature="0"
             id="path5978"
             d="m -17.97474,41.785849 c 0.0711,-0.39898 0.14837,-1.1794 0.17162,-1.73427 0.0416,-0.99142 0.0608,-1.02557 1.11539,-1.9754 0.59024,-0.53158 1.46138,-1.54394 1.93587,-2.2497 l 0.86269,-1.28318 0.045,0.9629 c 0.0662,1.41957 -0.36449,4.33037 -0.77145,5.21364 -0.29979,0.65061 -0.50195,0.80936 -1.30498,1.02461 -0.52263,0.1401 -1.22769,0.36995 -1.56683,0.51078 l -0.61659,0.25603 z"
             style="fill:#eac100;fill-opacity:1;stroke:none;stroke-width:0.22473012" />
          <path
             inkscape:connector-curvature="0"
             id="path5976"
             d="m -4.48473,50.304579 c -0.38685,-3.56363 -0.68142,-5.29537 -1.22932,-7.22673 -1.06303,-3.74728 -1.05353,-3.70506 -0.74597,-3.31569 0.99565,1.26049 4.61807,4.65978 6.37753,5.98472 1.81521,1.36694 2.10439,1.65895 2.17387,2.19518 0.13292,1.02562 -0.30026,3.55621 -0.71417,4.17219 -0.66717,0.99275 -2.29664,0.90428 -4.39249,-0.23858 -1.33872,-0.73002 -1.38334,-0.77773 -1.46945,-1.57109 z"
             style="fill:#c13957;fill-opacity:1;stroke:none;stroke-width:0.22473012" />
          <path
             inkscape:connector-curvature="0"
             id="path5974"
             d="m -59.16845,12.113274 c 0.069,-0.682868 0.8294,-0.930208 1.369,-0.445238 0.33294,0.299199 0.33994,0.47878 0.0364,0.93027 -0.31482,0.46827 -0.46408,0.51408 -0.91535,0.280929 -0.3694,-0.19086 -0.52371,-0.432048 -0.49004,-0.765961 z"
             style="fill:#7e67a2;fill-opacity:1;stroke:none;stroke-width:0.22473012" />
          <path
             inkscape:connector-curvature="0"
             id="path5972"
             d="m -56.09571,8.136494 c -0.30063,-0.930867 0.21817,-1.586989 1.2952,-1.638019 0.72138,-0.0342 0.80645,0.01111 1.09691,0.58379 0.43652,0.860689 -0.19759,2.04343 -1.10485,2.060781 -0.81855,0.01569 -1.00398,-0.129349 -1.28726,-1.006552 z"
             style="fill:#eac100;fill-opacity:1;stroke:none;stroke-width:0.22473012" />
          <path
             inkscape:connector-curvature="0"
             id="path5970"
             d="m -1.81545,41.758909 c -1.1444,-1.02539 -3.24689,-3.33092 -3.7411,-4.10232 l -0.52854,-0.825 1.46846,0.63533 c 0.88579,0.38324 2.33787,0.74354 3.65962,0.90809 l 2.19119,0.27278 0.89522,1.11348 c 0.49236,0.61241 1.1395,1.27775 1.43808,1.47848 0.29859,0.20075 0.51377,0.40828 0.47825,0.46114 -0.0355,0.0528 -1.00249,0.37767 -2.14874,0.72178 -2.21891,0.66608 -2.23066,0.66397 -3.71244,-0.66376 z"
             style="fill:#7e67a2;fill-opacity:1;stroke:none;stroke-width:0.22473012" />
          <path
             inkscape:connector-curvature="0"
             id="path5968"
             d="m -11.22289,34.344099 -1.66498,-1.2084 0.27151,-1.29705 c 0.14931,-0.71338 0.25873,-1.963514 0.24313,-2.778063 l -0.0285,-1.481011 0.58043,0.920861 c 0.31924,0.50646 1.13715,1.366938 1.81757,1.912189 l 1.23712,0.991334 -0.19317,1.52195 c -0.10628,0.83708 -0.1854,1.86227 -0.17591,2.27824 0.0118,0.51296 -0.0535,0.69067 -0.20252,0.55233 -0.12089,-0.1122 -0.96906,-0.74776 -1.88478,-1.41238 z"
             style="fill:#4a7b78;fill-opacity:1;stroke:none;stroke-width:0.22473012" />
          <path
             inkscape:connector-curvature="0"
             id="path5966"
             d="m -51.67386,4.844755 c -0.2265,-0.662559 0.0811,-1.666219 0.62974,-2.05418 0.58975,-0.4171 1.59023,-0.44758 2.15815,-0.0657 0.65268,0.438809 0.81294,1.703779 0.31054,2.45106 -0.76241,1.133978 -2.66712,0.93044 -3.09843,-0.33112 z"
             style="fill:#eac100;fill-opacity:1;stroke:none;stroke-width:0.22473012" />
          <path
             inkscape:connector-curvature="0"
             id="path5964"
             d="m -5.34062,32.581799 c 0.76626,-0.059 2.03015,-0.27563 2.8087,-0.48114 1.33436,-0.35225 1.5125,-0.33367 3.10462,0.32374 1.55612,0.64253 1.6627,0.7142 1.35435,0.91054 -0.1841,0.11723 -0.7894,0.60471 -1.34512,1.08333 -0.94187,0.81117 -1.0842,0.85621 -2.09813,0.664 -1.28013,-0.24269 -3.23931,-1.063 -4.39578,-1.84053 l -0.82176,-0.55248 z"
             style="fill:#eac100;fill-opacity:1;stroke:none;stroke-width:0.22473012" />
          <path
             inkscape:connector-curvature="0"
             id="path5962"
             d="m -45.60806,2.649896 c -0.23328,-0.989632 0.0605,-1.802569 0.83821,-2.318951 1.35839,-0.90205 3.05799,-0.153279 3.37977,1.489001 0.16514,0.842758 0.11456,1.031629 -0.44542,1.66339 -1.22003,1.37645 -3.3633,0.902949 -3.77256,-0.83344 z"
             style="fill:#eac100;fill-opacity:1;stroke:none;stroke-width:0.22473012" />
          <path
             inkscape:connector-curvature="0"
             id="path5960"
             d="m -7.10161,24.951017 c -0.23246,-0.343141 0.31017,-1.096892 0.82736,-1.149202 0.55656,-0.0563 1.04163,0.578741 0.87559,1.14636 -0.23284,0.796041 -1.16463,0.79761 -1.70295,0.003 z"
             style="fill:#ce6477;fill-opacity:1;stroke:none;stroke-width:0.22473012" />
          <path
             inkscape:connector-curvature="0"
             id="path5958"
             d="m -38.4554,2.175935 c -0.14625,-0.74643 -0.0729,-1.068959 0.4049,-1.779599 0.82803,-1.231611 2.04319,-1.46971 3.27479,-0.64168 0.71063,0.477779 0.90032,0.74876 1.04657,1.4952 0.14627,0.746429 0.0729,1.068969 -0.40489,1.779601 -0.47778,0.710628 -0.74876,0.900308 -1.49519,1.04657 -0.74643,0.146269 -1.06897,0.0729 -1.77961,-0.404892 -0.71063,-0.47778 -0.90031,-0.748761 -1.04657,-1.4952 z"
             style="fill:#eac100;fill-opacity:1;stroke:none;stroke-width:0.22473012" />
          <path
             inkscape:connector-curvature="0"
             id="path5956"
             d="m -10.49001,21.219307 c -0.1683,-1.163421 1.36189,-1.768391 2.17857,-0.861301 0.22926,0.254651 0.37263,0.729559 0.31858,1.055359 -0.22952,1.383642 -2.29212,1.223352 -2.49715,-0.194058 z"
             style="fill:#ce6477;fill-opacity:1;stroke:none;stroke-width:0.22473012" />
          <path
             inkscape:connector-curvature="0"
             id="path5954"
             d="m -13.92178,16.939536 c -0.23695,-1.447281 1.20373,-2.355151 2.42953,-1.531011 0.79628,0.53535 0.91434,1.320562 0.32934,2.190671 -0.79273,1.179081 -2.52567,0.76473 -2.75887,-0.65966 z"
             style="fill:#ce6477;fill-opacity:1;stroke:none;stroke-width:0.22473012" />
          <path
             inkscape:connector-curvature="0"
             id="path5952"
             d="m -30.78919,4.950615 c -1.5133,-2.63601 1.75253,-5.67027 4.27656,-3.97332 2.06178,1.386171 1.66254,4.601671 -0.66465,5.353241 -1.48406,0.479269 -2.84248,-0.0397 -3.61191,-1.379921 z"
             style="fill:#eac100;fill-opacity:1;stroke:none;stroke-width:0.22473012" />
          <path
             inkscape:connector-curvature="0"
             id="path5950"
             d="m -17.77587,13.136455 c -0.89639,-0.91205 -0.62904,-2.576309 0.51462,-3.20354 0.82266,-0.451178 1.44843,-0.407959 2.29049,0.15816 1.89833,1.276281 0.3419,4.34812 -1.82419,3.600251 -0.36261,-0.125201 -0.80403,-0.374912 -0.98092,-0.554871 z"
             style="fill:#ce6477;fill-opacity:1;stroke:none;stroke-width:0.22473012" />
          <path
             inkscape:connector-curvature="0"
             id="path4672"
             d="m -23.71985,8.388587 c -0.89256,-1.707132 0.62118,-3.909423 2.53558,-3.688961 1.27607,0.146939 2.07048,0.856699 2.30638,2.060548 0.17737,0.905132 0.12149,1.18877 -0.38154,1.936962 -0.50302,0.74817 -0.74459,0.90696 -1.64972,1.084321 -0.84678,0.16592 -1.20407,0.109018 -1.77341,-0.282422 -0.39207,-0.26974 -0.85892,-0.769318 -1.03729,-1.110448 z"
             style="fill:#ce6477;fill-opacity:1;stroke:none;stroke-width:0.22473012" />
          <path
             sodipodi:nodetypes="zcczz"
             inkscape:connector-curvature="0"
             id="path5934"
             d="m -92.454987,122.39969 c -0.003,0.0561 -17.091213,26.54413 -14.652573,30.94792 6.57029,-0.21727 12.321563,-8.95619 14.753783,-9.39358 1.82349,1.32028 12.675157,9.99713 15.345067,7.45112 2.66991,-2.54601 -15.443717,-29.06158 -15.446277,-29.00546 z"
             style="fill:#392d36;fill-opacity:1;stroke:none;stroke-width:0.26458332px;stroke-linecap:butt;stroke-linejoin:miter;stroke-opacity:1" />
          <path
             inkscape:connector-curvature="0"
             id="path5936"
             d="m -63.21588,166.07115 c -14.37884,12.85061 -33.851507,15.04888 -60.89452,2.51172 l -0.70118,1.50976 c 27.391583,12.69876 47.83409,10.51115 62.70507,-2.7793 z"
             style="color:#000000;font-style:normal;font-variant:normal;font-weight:normal;font-stretch:normal;font-size:medium;line-height:normal;font-family:sans-serif;font-variant-ligatures:normal;font-variant-position:normal;font-variant-caps:normal;font-variant-numeric:normal;font-variant-alternates:normal;font-feature-settings:normal;text-indent:0;text-align:start;text-decoration:none;text-decoration-line:none;text-decoration-style:solid;text-decoration-color:#000000;letter-spacing:normal;word-spacing:normal;text-transform:none;writing-mode:lr-tb;direction:ltr;text-orientation:mixed;dominant-baseline:auto;baseline-shift:baseline;text-anchor:start;white-space:normal;shape-padding:0;clip-rule:nonzero;display:inline;overflow:visible;visibility:visible;opacity:1;isolation:auto;mix-blend-mode:normal;color-interpolation:sRGB;color-interpolation-filters:linearRGB;solid-color:#000000;solid-opacity:1;vector-effect:none;fill:#392d36;fill-opacity:1;fill-rule:nonzero;stroke:none;stroke-width:1.66499996;stroke-linecap:butt;stroke-linejoin:miter;stroke-miterlimit:4;stroke-dasharray:none;stroke-dashoffset:0;stroke-opacity:1;color-rendering:auto;image-rendering:auto;shape-rendering:auto;text-rendering:auto;enable-background:accumulate" />
          <ellipse
             ry="35.999737"
             rx="37.984085"
             cy="91.984909"
             cx="-149.32614"
             id="path5940"
             style="opacity:1;fill:#392d36;fill-opacity:1;stroke:none;stroke-width:1.53140759;stroke-linecap:round;stroke-miterlimit:4;stroke-dasharray:none;paint-order:markers stroke fill" />
          <ellipse
             style="opacity:1;fill:#392d36;fill-opacity:1;stroke:none;stroke-width:1.53140759;stroke-linecap:round;stroke-miterlimit:4;stroke-dasharray:none;paint-order:markers stroke fill"
             id="ellipse5944"
             cx="-43.52195"
             cy="85.589478"
             rx="37.984085"
             ry="35.999737" />
          <path
             sodipodi:nodetypes="czcccc"
             inkscape:connector-curvature="0"
             id="path5946"
             d="m -95.544797,57.673219 c 2.13816,-3.65268 3.45551,-10.73811 6.60346,-10.29659 3.147937,0.44152 1.594117,6.30376 1.594117,6.30376 -2.336837,5.0885 -4.731197,8.53772 -7.796667,12.41182 -3.69245,-4.6982 -14.929283,-14.93759 -10.501803,-18.71558 5.32919,-2.53444 8.634863,7.0837 10.100893,10.29659 z"
             style="fill:#7e67a2;fill-opacity:1;stroke:none;stroke-width:0.26458332px;stroke-linecap:butt;stroke-linejoin:miter;stroke-opacity:1" />
          <path
             inkscape:connector-curvature="0"
             id="path6020"
             d="m -95.555817,-26.050605 0.0801,1.261721 1.26172,-0.0781 -0.0781,-1.26367 z m -31.289063,5.07617 0.33203,1.2207 1.2207,-0.33007 -0.33203,-1.22071 z m -29.04296,12.375 -0.008,0.004 -0.006,0.004 -0.10352,0.0645 0.67578,1.07031 0.0898,-0.0586 0.0137,-0.008 0.96679,-0.57812 -0.64843,-1.08594 z m -23.45899,20.24414 -0.006,0.006 -0.004,0.006 -0.52539,0.642578 0.98047,0.80078 0.51367,-0.630859 0.004,-0.004 0.006,-0.008 0.27539,-0.31836 -0.96094,-0.824222 z m -16.55664,27.224614 -0.004,0.01 -0.004,0.008 -0.25,0.61328 1.16992,0.48047 0.24414,-0.5957 0.008,-0.0176 0.23633,-0.53321 -1.15625,-0.51367 z m -9.49805,30.93555 1.23437,0.26953 0.27149,-1.23438 -1.23633,-0.27148 z"
             style="color:#000000;font-style:normal;font-variant:normal;font-weight:normal;font-stretch:normal;font-size:medium;line-height:normal;font-family:sans-serif;font-variant-ligatures:normal;font-variant-position:normal;font-variant-caps:normal;font-variant-numeric:normal;font-variant-alternates:normal;font-feature-settings:normal;text-indent:0;text-align:start;text-decoration:none;text-decoration-line:none;text-decoration-style:solid;text-decoration-color:#000000;letter-spacing:normal;word-spacing:normal;text-transform:none;writing-mode:lr-tb;direction:ltr;text-orientation:mixed;dominant-baseline:auto;baseline-shift:baseline;text-anchor:start;white-space:normal;shape-padding:0;clip-rule:nonzero;display:inline;overflow:visible;visibility:visible;opacity:1;isolation:auto;mix-blend-mode:normal;color-interpolation:sRGB;color-interpolation-filters:linearRGB;solid-color:#000000;solid-opacity:1;vector-effect:none;fill:#000000;fill-opacity:1;fill-rule:nonzero;stroke:none;stroke-width:1.26499999;stroke-linecap:butt;stroke-linejoin:miter;stroke-miterlimit:4;stroke-dasharray:1.26500001, 30.36000033;stroke-dashoffset:0;stroke-opacity:1;color-rendering:auto;image-rendering:auto;shape-rendering:auto;text-rendering:auto;enable-background:accumulate" />
          <path
             sodipodi:nodetypes="ccccccccc"
             id="path6028"
             d="m -209.49821,101.76637 c 1.19544,19.49625 5.67635,39.81811 8.39994,56.46173 6.49284,3.89926 21.43652,6.01292 34.33157,8.08013 l 8.1692,-0.0977 c -3.39857,-10.23937 -3.11496,-21.03211 -26.41315,-25.01759 0,0 9.58971,-12.44189 3.22251,-18.20457 -6.36719,-5.76269 -11.46357,1.39578 -11.46357,1.39578 -0.2614,-10.4783 -4.50584,-21.18206 -12.43976,-22.25771 z"
             style="fill:#7e67a2;fill-opacity:1;stroke:none;stroke-width:0.30415776px;stroke-linecap:butt;stroke-linejoin:miter;stroke-opacity:1"
             inkscape:connector-curvature="0" />
          <path
             sodipodi:nodetypes="ccccscc"
             id="path6030"
             d="m -208.55695,111.77365 c 1.36984,16.12318 5.24373,32.81672 7.45868,46.45445 6.41428,3.85208 21.06842,5.96061 33.85495,8.00417 -2.84715,-8.6389 -2.67098,-17.72362 -22.32098,-21.08503 0,0 8.11341,-10.52704 2.72633,-15.40267 -5.3871,-4.87564 -9.69883,1.18132 -9.69883,1.18132 -0.22116,-8.86536 -5.30749,-18.24217 -12.02015,-19.15224 z"
             style="opacity:1;fill:#eac100;fill-opacity:1;stroke:none;stroke-width:0.67832309;stroke-linecap:round;stroke-miterlimit:4;stroke-dasharray:none;paint-order:markers stroke fill"
             inkscape:connector-curvature="0" />
          <path
             sodipodi:nodetypes="czczc"
             inkscape:connector-curvature="0"
             id="path6045"
             d="m -196.63031,26.551357 c 4.21491,1.124688 20.16084,-3.916611 28.31089,-1.664531 8.15006,2.25207 12.75598,15.098753 11.44974,16.195693 -0.87847,2.12614 -12.48103,6.6389 -21.6883,2.18001 -9.20726,-4.45888 -18.07233,-16.711172 -18.07233,-16.711172 z"
             style="fill:#4a7b78;fill-opacity:1;stroke:none;stroke-width:0.34296712px;stroke-linecap:butt;stroke-linejoin:miter;stroke-opacity:1" />
          <path
             style="fill:#569685;fill-opacity:1;stroke:none;stroke-width:0.16308917px;stroke-linecap:butt;stroke-linejoin:miter;stroke-opacity:1"
             d="m -165.26404,8.558486 c 0.44724,2.02564 -2.27717,9.496999 -1.37564,13.41541 0.90154,3.918429 6.90952,6.371979 7.45764,5.774071 1.02823,-0.373412 3.41183,-5.79229 1.48373,-10.258542 -1.9281,-4.466241 -7.56573,-8.930939 -7.56573,-8.930939 z"
             id="path6047"
             inkscape:connector-curvature="0"
             sodipodi:nodetypes="czczc" />
          <path
             sodipodi:nodetypes="czczc"
             inkscape:connector-curvature="0"
             id="path6049"
             d="m -143.33407,13.793675 c -1.34737,2.50593 -10.80722,8.3103 -13.37618,13.186391 -2.56901,4.876123 1.41058,12.208623 2.50649,12.003613 1.38857,0.41118 8.66814,-3.47818 10.67184,-9.743944 2.00367,-6.26577 0.19785,-15.44606 0.19785,-15.44606 z"
             style="fill:#88b795;fill-opacity:1;stroke:none;stroke-width:0.21837427px;stroke-linecap:butt;stroke-linejoin:miter;stroke-opacity:1" />
          <path
             style="fill:#f9f1e2;fill-opacity:1;stroke:none;stroke-width:0.5504815"
             d="m -2.96518,132.35778 c 0.16889,-1.67271 2.03164,-2.27858 3.35341,-1.09062 0.81552,0.7329 0.8327,1.17278 0.0891,2.27872 -0.77116,1.14703 -1.13677,1.25924 -2.24218,0.68814 -0.90485,-0.46752 -1.28283,-1.05833 -1.20036,-1.87624 z"
             id="path6051"
             inkscape:connector-curvature="0" />
          <path
             inkscape:connector-curvature="0"
             id="path6053"
             d="m -193.06227,133.19768 c 0.16889,-1.67271 2.03164,-2.27858 3.35341,-1.09062 0.81552,0.7329 0.83269,1.17278 0.0891,2.27872 -0.77115,1.14703 -1.13676,1.25924 -2.24217,0.68814 -0.90485,-0.46752 -1.28283,-1.05833 -1.20036,-1.87624 z"
             style="fill:#f9f1e2;fill-opacity:1;stroke:none;stroke-width:0.5504815" />
          <path
             style="fill:#000000;fill-opacity:1;stroke:none;stroke-width:0.37056386"
             d="m -157.66064,158.9594 c 0.11369,-1.12601 1.36763,-1.53386 2.2574,-0.73417 0.54898,0.49337 0.56053,0.78947 0.06,1.53395 -0.51911,0.77214 -0.76522,0.84767 -1.50935,0.46323 -0.6091,-0.31471 -0.86356,-0.71243 -0.80804,-1.26301 z"
             id="path6055"
             inkscape:connector-curvature="0" />
          <path
             inkscape:connector-curvature="0"
             id="path6057"
             d="m -35.78392,160.06353 c 0.11369,-1.12601 1.36762,-1.53386 2.25739,-0.73417 0.54898,0.49337 0.56053,0.78947 0.06,1.53395 -0.51911,0.77214 -0.76523,0.84767 -1.50935,0.46323 -0.60911,-0.31471 -0.86356,-0.71243 -0.80803,-1.26301 z"
             style="fill:#000000;fill-opacity:1;stroke:none;stroke-width:0.37056386" />
          <path
             inkscape:connector-curvature="0"
             id="path4507"
             d="m -125.88867,-14.338215 c -0.64928,0.34398 0.26313,3.91531 -0.34789,4.32354 -0.611,0.40822 -3.5526,-1.80717 -4.11909,-1.33889 -0.56648,0.46829 1.04334,3.78481 0.52721,4.30834 -0.51616,0.523541 -3.84016,-1.05413 -4.30067,-0.48072 -0.46051,0.57341 1.78063,3.499231 1.38049,4.116639 -0.40014,0.617421 -3.97031,-0.258098 -4.30598,0.396981 -0.33569,0.655061 2.44538,3.070662 2.17761,3.756671 -0.26776,0.686009 -3.93808,0.548769 -4.13517,1.258681 -0.19711,0.709909 3.00953,2.516399 2.88509,3.242918 -0.12442,0.72653 -3.74438,1.33282 -3.79485,2.068499 -0.0505,0.735682 3.45106,1.859071 3.47507,2.596362 0.024,0.737291 -3.39767,2.06275 -3.29943,2.794079 0.0982,0.73134 3.75091,1.125191 3.92237,1.843069 0.17146,0.717881 -2.91194,2.708222 -2.66901,3.405273 0.24293,0.697058 3.89737,0.345638 4.20928,1.014708 0.31188,0.669081 -2.30675,3.242422 -1.92909,3.876641 0.37767,0.63423 3.88419,-0.448 4.32376,0.14487 0.43956,0.592881 -1.60714,3.64413 -1.11019,4.189569 0.49694,0.545451 3.71211,-1.223518 4.26134,-0.731118 0.54923,0.492408 -0.84191,3.896648 -0.24602,4.330972 0.59587,0.43432 3.388,-1.948675 4.02441,-1.576893 0.63641,0.37178 -0.0418,3.989613 0.62856,4.295033 0.67042,0.30542 2.9249,-2.5945 3.62244,-2.35858 0.69755,0.23594 0.75974,3.91935 1.47725,4.08336 0.7175,0.16402 2.34225,-3.13354 3.07236,-3.04311 0.73011,0.0904 1.53006,3.68841 2.26528,3.7043 0.73522,0.0159 1.66377,-3.54486 2.39656,-3.60364 0.73279,-0.0588 2.23772,3.30654 2.96056,3.17367 0.72284,-0.13287 0.91735,-3.81058 1.62282,-4.01618 0.70547,-0.20559 2.85401,2.7895 3.53487,2.5133 0.68087,-0.2762 0.13317,-3.920652 0.78244,-4.264635 0.64927,-0.343979 3.353393,2.157995 3.964403,1.749765 0.61102,-0.40823 -0.65657,-3.869924 -0.0901,-4.338212 0.56648,-0.468281 3.71527,1.438298 4.23142,0.914759 0.51615,-0.523531 -1.41923,-3.660812 -0.95872,-4.23423 0.46051,-0.57341 3.92529,0.65931 4.32543,0.0419 0.40015,-0.617411 -2.12362,-3.301871 -1.78794,-3.956939 0.33569,-0.655072 3.97445,-0.146072 4.24223,-0.832081 0.26776,-0.686019 -2.74154,-2.80788 -2.54444,-3.517791 0.19712,-0.709898 3.861007,-0.945639 3.985437,-1.672159 0.11328,-0.661461 -2.670437,-1.940861 -3.132017,-2.719961 -1.38735,0.11707 -2.77146,-0.159301 -3.98752,-0.79619 -0.49178,-0.223359 -0.86314,-0.47993 -1.15693,-0.75841 -0.83124,-0.670059 -1.28167,-1.687959 -1.72832,-2.65141 -0.71192,0.77085 -1.8512,1.938962 -3.357583,1.10041 -2.17293,-2.366248 -2.12297,-2.937439 -5.26808,-3.828241 0,0 3.07332,-3.668919 0.60492,-7.585098 -2.4684,-3.916181 -8.44037,-2.054292 -8.44037,-2.054292 l -17.89328,8.164632 c 0.1837,-0.514062 0.38898,-1.020252 0.61532,-1.51729 0.58737,-1.289881 1.31671,-2.51746 2.17791,-3.657 1.87408,-2.479831 4.37365,-4.542851 7.39998,-5.923751 6.19999,-2.82865 13.22133,-2.13128 18.64164,1.41566 0.3711,2.44291 -0.30213,4.877341 0.60631,5.734509 0.92621,0.873951 2.554073,0.6892 4.783193,-0.439877 l 4.36459,-2.185102 c 0.49977,-1.091779 0.98628,-2.220849 0.66361,-2.656049 -0.43956,-0.592881 -3.59729,0.739469 -4.09423,0.19403 -0.49695,-0.545451 1.23078,-3.789841 0.68155,-4.282251 -0.54923,-0.49241 -3.56824,1.59427 -4.16412,1.15995 -0.595883,-0.43432 0.44394,-3.9635 -0.192463,-4.33529 -0.63641,-0.37178 -3.17257,2.28321 -3.84299,1.97778 -0.67041,-0.30542 -0.36077,-3.97457 -1.05832,-4.21049 -0.69754,-0.23594 -2.64707,2.87849 -3.36457,2.71448 -0.71751,-0.16402 -1.1508,-3.82334 -1.88091,-3.91376 -0.73012,-0.0904 -2.01349,3.35645 -2.74872,3.34055 -0.73523,-0.0159 -1.89352,-3.51562 -2.62632,-3.45683 -0.73279,0.0588 -1.29736,3.69662 -2.02021,3.8295 -0.72284,0.13287 -2.5591,-3.06347 -3.26458,-2.85788 -0.70547,0.20559 -0.52785,3.88532 -1.20871,4.16153 -0.68086,0.2762 -3.11964,-2.48656 -3.76891,-2.14259 z m 25.921023,8.958531 a 1.4586999,1.4586999 0 0 1 1.93264,0.72155 1.4586999,1.4586999 0 0 1 -0.72154,1.932649 1.4586999,1.4586999 0 0 1 -1.932653,-0.72155 1.4586999,1.4586999 0 0 1 0.721553,-1.932649 z m -21.086223,9.734999 6.23978,-2.847189 c 0,0 1.84531,-0.88546 2.67703,0.853959 0.83171,1.73941 -1.10937,2.581672 -1.10937,2.581672 l -6.23978,2.847189 z m -11.65865,5.402152 3.72688,-1.700562 5.10127,11.179741 -4.67628,2.13377 c -0.92439,-1.245439 -1.72986,-2.62282 -2.40872,-4.110559 -1.11182,-2.436691 -1.67489,-4.983631 -1.74315,-7.50239 z m 15.55643,2.875097 4.95639,-2.261579 c 0,0 1.11463,-0.432549 2.3419,0.44196 1.42655,1.016511 3.034,3.413551 3.66453,4.279159 1.17297,1.610321 3.48553,1.411592 3.48553,1.411592 l 8.375593,-3.821739 c -0.17631,0.972029 -0.42429,1.926039 -0.74395,2.853309 -0.44964,1.304329 -4.24339,0.44306 -4.957373,1.62112 -0.65065,1.073568 1.799883,4.199171 0.947623,5.132898 -1.712573,1.876272 -3.814783,3.436552 -6.237573,4.545412 -2.83334,1.292829 -5.81559,1.84531 -8.72943,1.738519 -1.15778,-0.0425 -2.1992,-3.584098 -3.42188,-3.722759 -1.22266,-0.13866 -2.56115,2.37925 -3.84654,2.3474 -0.77149,-0.32878 -1.50963,-0.71419 -2.21459,-1.14994 l 14.67363,-6.69552 -2.55919,-5.608621 -4.32675,1.974291 z m -1.53917,14.943132 a 1.4586998,1.4586998 0 0 1 1.93263,0.721551 1.4586998,1.4586998 0 0 1 -0.72154,1.932638 1.4586998,1.4586998 0 0 1 -1.93265,-0.72155 1.4586998,1.4586998 0 0 1 0.72156,-1.932639 z m 21.488803,-9.660001 a 1.4586999,1.4586999 0 0 1 1.93265,0.72154 1.4586999,1.4586999 0 0 1 -0.72155,1.932641 1.4586999,1.4586999 0 0 1 -1.93264,-0.72154 1.4586999,1.4586999 0 0 1 0.72154,-1.932641 z"
             style="opacity:0.92099998;fill:#a33049;fill-opacity:1;stroke:none;stroke-width:0.12121245;stroke-linecap:round;stroke-miterlimit:4;stroke-dasharray:none;paint-order:markers stroke fill" />
          <g
             id="text4533"
             style="font-style:normal;font-variant:normal;font-weight:bold;font-stretch:normal;font-size:37.62532043px;line-height:23.51582527px;font-family:Rockwell;-inkscape-font-specification:'Rockwell, Bold';font-variant-ligatures:normal;font-variant-caps:normal;font-variant-numeric:normal;font-feature-settings:normal;text-align:start;letter-spacing:0px;word-spacing:0px;writing-mode:lr-tb;text-anchor:start;fill:#a33049;fill-opacity:1;stroke:none;stroke-width:0.22872105;stroke-miterlimit:4;stroke-dasharray:none"
             transform="matrix(0.6729803,-0.30707809,0.2437618,0.53421881,-55.05228,-158.69089)"
             aria-label="u">
            <path
               sodipodi:nodetypes="ccccscscccccccccccc"
               inkscape:connector-curvature="0"
               id="path4580"
               style="fill:#a33049;fill-opacity:1;stroke:none;stroke-width:0.22872105"
               d="m -121.68014,229.10309 v 5.21051 l -9.42686,-0.053 0.0298,-2.06894 c -1.70245,1.17579 -3.45916,2.32615 -5.2106,2.32615 -1.71469,0 -3.06195,-0.47767 -4.04178,-1.433 -0.96758,-0.96757 -1.95739,-2.32708 -1.95739,-4.07852 v -6.77035 h -2.15788 v -5.75918 h 9.83783 v 11.2176 c 0,1.56932 3.50005,1.57177 3.50005,0 v -5.45842 h -1.51663 v -5.75918 h 9.34036 v 12.57333 z" />
          </g>
          <g
             id="text4553"
             style="font-style:normal;font-variant:normal;font-weight:bold;font-stretch:normal;font-size:37.1505661px;line-height:23.21910477px;font-family:Rockwell;-inkscape-font-specification:'Rockwell, Bold';font-variant-ligatures:normal;font-variant-caps:normal;font-variant-numeric:normal;font-feature-settings:normal;text-align:start;letter-spacing:0px;word-spacing:0px;writing-mode:lr-tb;text-anchor:start;fill:#a33049;fill-opacity:1;stroke:#a33049;stroke-width:0.72600001;stroke-miterlimit:4;stroke-dasharray:none;stroke-opacity:1"
             transform="matrix(0.66436856,-0.3031486,0.24692151,0.54114348,-55.05228,-158.69089)"
             aria-label="s">
            <path
               sodipodi:nodetypes="cccccscccscscccccssccccscsccc"
               inkscape:connector-curvature="0"
               id="path4586"
               style="fill:#a33049;fill-opacity:1;stroke:#a33049;stroke-width:0.72600001;stroke-miterlimit:4;stroke-dasharray:none;stroke-opacity:1"
               d="m -121.72511,231.31679 v -5.37428 h 4.64236 c 0.4473,1.67584 1.72788,2.02636 2.89282,2.03653 0.91909,0 1.6326,-0.15721 2.14051,-0.47164 0.52001,-0.32651 0.78002,-0.73768 0.78002,-1.23351 0,-0.45955 -0.23582,-0.8163 -0.70746,-1.07026 -0.47163,-0.25396 -1.39677,-0.49582 -2.77541,-0.72559 -2.84192,-0.45955 -4.22839,-1.15491 -5.48609,-2.0861 -1.2577,-0.94327 -1.88655,-2.18888 -1.88655,-3.73682 0,-1.45119 0.59257,-2.67261 1.77771,-3.66426 1.18514,-1.00375 3.02863,-1.50562 4.98774,-1.50562 1.58422,0 2.70383,0.29024 4.08246,0.87072 v -0.59862 h 4.70242 v 4.69013 h -4.70242 c -0.3628,-1.22142 -1.43363,-1.79512 -3.6346,-1.79512 -1.19838,0 -1.55635,0.81763 -1.55635,1.71253 0,0.33861 0.16326,0.59862 0.48978,0.78002 0.33861,0.16931 1.19118,0.37489 2.55773,0.61676 2.16469,0.37489 3.06155,0.74978 4.13786,1.12467 1.0763,0.37489 2.23644,0.92366 2.87738,1.79437 0.65304,0.85863 0.97956,1.8926 0.97956,3.10193 0,1.71725 -0.61676,3.12611 -1.85027,4.2266 -1.22142,1.0884 -3.25833,1.70664 -5.50768,1.70664 -2.09214,0 -3.52519,-0.42327 -4.29916,-1.2698 v 0.87072 z" />
          </g>
          <g
             id="text4557"
             style="font-style:normal;font-variant:normal;font-weight:bold;font-stretch:normal;font-size:39.88220215px;line-height:24.92637825px;font-family:Rockwell;-inkscape-font-specification:'Rockwell, Bold';font-variant-ligatures:normal;font-variant-caps:normal;font-variant-numeric:normal;font-feature-settings:normal;text-align:start;letter-spacing:0px;word-spacing:0px;writing-mode:lr-tb;text-anchor:start;fill:#a33049;fill-opacity:1;stroke:none;stroke-width:0.24244045;stroke-miterlimit:4;stroke-dasharray:none"
             transform="matrix(0.70107334,-0.31989683,0.23399391,0.51281187,-55.05228,-158.69089)"
             aria-label="t">
            <path
               sodipodi:nodetypes="cccccccccscsccsscc"
               inkscape:connector-curvature="0"
               id="path4583"
               style="fill:#a33049;fill-opacity:1;stroke:none;stroke-width:0.24244045"
               d="m -99.411621,231.38826 v -6.0395 h 1.852381 v -2.60845 l 7.188878,-4.32317 v 6.93162 h 2.837717 v 6.20523 h -2.799585 v 4.62395 c 0,0.74 0.09088,1.23982 0.272632,1.49947 0.194737,0.24667 0.62965,0.37 1.30474,0.37 0.558246,0 0.521158,-0.12982 1.222213,-0.38947 v 5.43797 c -1.504508,0.85711 -3.016968,1.4514 -4.496971,1.4514 -3.297552,0 -5.552454,-2.60255 -5.552454,-5.87414 v -7.28491 z" />
          </g>
          <g
             id="text4591"
             style="font-style:normal;font-variant:normal;font-weight:bold;font-stretch:normal;font-size:14.25069427px;line-height:8.90668583px;font-family:Rockwell;-inkscape-font-specification:'Rockwell, Bold';font-variant-ligatures:normal;font-variant-caps:normal;font-variant-numeric:normal;font-feature-settings:normal;text-align:start;letter-spacing:0px;word-spacing:0px;writing-mode:lr-tb;text-anchor:start;fill:#a33049;fill-opacity:1;stroke:none;stroke-width:0.35626733"
             transform="matrix(0.58431308,-0.26661962,0.2807517,0.61528444,-55.05228,-158.69089)"
             aria-label="México" />
          <path
             sodipodi:nodetypes="ccccccccc"
             inkscape:connector-curvature="0"
             id="path6091"
             d="m -157.88962,70.417639 c -4.78751,0.37192 -8.57576,1.41001 -11.22532,3.20722 -2.79512,3.61374 -4.28506,7.88008 -4.94448,12.56168 4.30451,8.72652 15.91767,16.995601 25.85832,25.390581 7.21628,-7.57263 14.9003,-15.145261 22.11658,-22.717891 -0.50131,-5.48341 -1.8323,-10.63494 -3.20724,-15.7689 -4.23324,-1.27323 -8.41335,-2.41363 -12.29438,-2.80633 -3.2239,1.2717 -5.3511,3.56671 -7.75084,5.81311 -2.18356,-2.36002 -4.96154,-4.72698 -8.55264,-5.67947 z"
             style="fill:#88b795;fill-opacity:1;stroke:none;stroke-width:0.26458332px;stroke-linecap:butt;stroke-linejoin:miter;stroke-opacity:1" />
          <path
             style="fill:#88b795;fill-opacity:1;stroke:none;stroke-width:0.26458332px;stroke-linecap:butt;stroke-linejoin:miter;stroke-opacity:1"
             d="m -34.14056,65.129459 c 4.77902,0.46853 8.54554,1.58291 11.15825,3.43326 2.72157,3.66946 4.12505,7.96501 4.6898,12.65898 -4.47986,8.6378 -16.25765,16.67067 -26.36581,24.863191 -7.06188,-7.716831 -14.59138,-15.443091 -21.65326,-23.159921 0.61193,-5.47216 2.0467,-10.59576 3.52504,-15.70091 4.25809,-1.18748 8.46037,-2.24322 12.34854,-2.55747 3.19754,1.33655 5.27799,3.67405 7.63185,5.96845 2.23079,-2.31544 5.056,-4.62581 8.66559,-5.50558 z"
             id="path6093"
             inkscape:connector-curvature="0"
             sodipodi:nodetypes="ccccccccc" />
          <path
             inkscape:connector-curvature="0"
             id="path4899"
             d="m -146.6364,42.955779 v 9.28e-4 c -0.7484,-0.02292 -4.57275,9.20611 -5.31785,9.281055 -0.74488,0.07506 -6.33148,-8.207515 -7.06029,-8.035947 -0.72876,0.171657 -2.03341,10.077374 -2.73352,10.342697 -0.70023,0.26527 -8.23996,-6.288923 -8.89947,-5.934535 -0.65968,0.354371 0.64316,10.259686 0.0353,10.697137 -0.60774,0.437469 -9.58674,-3.941891 -10.13198,-3.428883 -0.54543,0.513025 3.27699,9.742076 2.80314,10.321856 -0.47366,0.579816 -10.28046,-1.32483 -10.67455,-0.68811 -0.39385,0.636666 5.68675,8.563127 5.37934,9.245813 -0.30763,0.682651 -10.27249,1.379932 -10.48824,2.096931 -0.21576,0.716948 7.70871,6.798747 7.58834,7.537742 -0.12074,0.739053 -9.56559,3.991582 -9.58851,4.739978 -0.0227,0.748426 9.206,4.572889 9.28111,5.317855 0.0753,0.745008 -8.20656,6.331474 -8.03508,7.060264 0.17149,0.72886 10.07555,2.0324 10.34084,2.73259 0.2651,0.7002 -6.2879,8.24086 -5.9336,8.9004 0.3545,0.65964 10.25894,-0.64376 10.69621,-0.0363 0.43747,0.60769 -3.94099,9.58661 -3.42795,10.13199 0.51305,0.54538 9.74291,-3.27691 10.32278,-2.80314 0.57973,0.47376 -1.32577,10.28051 -0.68904,10.6745 0.63677,0.39403 8.56234,-5.68684 9.24493,-5.37929 0.68261,0.30754 1.37983,10.27333 2.09694,10.48912 0.71686,0.21584 6.79967,-7.70959 7.53862,-7.58922 0.73908,0.12039 3.99162,9.56564 4.74001,9.58851 0.74839,0.0229 4.57182,-9.2061 5.31689,-9.28109 0.7449,-0.0751 6.33241,8.20664 7.0612,8.03506 0.7288,-0.17166 2.03322,-10.07562 2.7335,-10.34089 0.70011,-0.26522 8.23984,6.28797 8.89948,5.93365 0.6595,-0.35444 -0.64329,-10.25876 -0.0352,-10.69627 0.60769,-0.43741 9.58744,3.94098 10.13286,3.42798 0.54523,-0.51302 -3.27772,-9.74204 -2.80407,-10.32186 0.47371,-0.57983 10.28048,1.32571 10.67456,0.68904 0.39403,-0.63668 -5.68601,-8.56312 -5.37842,-9.24583 0.30746,-0.68269 10.27158,-1.37996 10.48732,-2.09691 0.21579,-0.717 -7.70871,-6.799642 -7.58834,-7.538639 0.12073,-0.739027 9.56559,-3.991619 9.58856,-4.740014 0.0227,-0.748395 -9.20606,-4.571908 -9.2811,-5.316926 -0.0753,-0.744956 8.20669,-6.331387 8.03501,-7.060286 -0.17149,-0.728759 -10.07468,-2.034184 -10.33992,-2.734385 -0.26527,-0.700202 6.28793,-8.239886 5.93362,-8.899528 -0.35436,-0.659536 -10.2588,0.643807 -10.69622,0.03622 -0.43746,-0.607743 3.94011,-9.587552 3.42703,-10.132931 -0.51306,-0.545379 -9.74216,3.276896 -10.32184,2.803153 -0.57991,-0.47376 1.32487,-10.279598 0.68811,-10.67362 -0.63659,-0.393985 -8.56216,5.686833 -9.2449,5.379322 -0.6826,-0.307546 -1.37915,-10.273334 -2.09604,-10.489173 -0.71705,-0.215785 -6.8006,7.708628 -7.53951,7.588399 -0.73894,-0.120388 -3.99162,-9.565696 -4.74001,-9.588566 z m -1.45673,14.399096 h 0.0123 c 6.52639,0.0018 12.62152,1.812885 17.7927,4.948868 l 0.0822,6.763698 7.97358,0.03534 c 5.01197,5.793641 8.03503,13.294251 8.03503,21.486458 0,8.147844 -2.99107,15.610041 -7.95455,21.390671 l -8.12911,-0.0759 -0.0696,6.84598 c -5.16823,3.1273 -11.22386,5.07372 -17.74292,5.07368 -6.36964,-1.4e-4 -12.32945,-1.72309 -17.42015,-4.71924 v -7.15884 l -8.37322,0.19624 c -5.04679,-5.80281 -8.09382,-13.328694 -8.09382,-21.552519 0,-8.197697 3.02689,-15.702945 8.04498,-21.498212 l 8.45734,-0.0035 v -7.026815 c 5.0826,-2.986288 11.02909,-4.704142 17.38487,-4.706539 z m -21.92957,7.606438 a 1.3445502,1.3445502 0 0 1 1.3446,1.344602 1.3445502,1.3445502 0 0 1 -1.3446,1.344604 1.3445502,1.3445502 0 0 1 -1.34461,-1.344604 1.3445502,1.3445502 0 0 1 1.34461,-1.344602 z m 42.90874,0 a 1.3445502,1.3445502 0 0 1 1.3446,1.344602 1.3445502,1.3445502 0 0 1 -1.3446,1.344604 1.3445502,1.3445502 0 0 1 -1.3446,-1.344604 1.3445502,1.3445502 0 0 1 1.3446,-1.344602 z m -42.90874,48.611777 a 1.3445502,1.3445502 0 0 1 1.3446,1.34461 1.3445502,1.3445502 0 0 1 -1.3446,1.3446 1.3445502,1.3445502 0 0 1 -1.34461,-1.3446 1.3445502,1.3445502 0 0 1 1.34461,-1.34461 z m 42.90874,0 a 1.3445502,1.3445502 0 0 1 1.3446,1.34461 1.3445502,1.3445502 0 0 1 -1.3446,1.3446 1.3445502,1.3445502 0 0 1 -1.3446,-1.3446 1.3445502,1.3445502 0 0 1 1.3446,-1.34461 z"
             style="opacity:1;fill:#c13957;fill-opacity:1;stroke:none;stroke-width:2.30141521;stroke-linecap:round;stroke-miterlimit:4;stroke-dasharray:2.30141519, 55.23396484;stroke-dashoffset:0;stroke-opacity:1;paint-order:markers stroke fill" />
          <path
             style="opacity:1;fill:#c13957;fill-opacity:1;stroke:none;stroke-width:2.30141521;stroke-linecap:round;stroke-miterlimit:4;stroke-dasharray:2.30141519, 55.23396484;stroke-dashoffset:0;stroke-opacity:1;paint-order:markers stroke fill"
             d="m -41.565523,39.769882 v 9.28e-4 c -0.7484,-0.02292 -4.57275,9.20611 -5.31785,9.281055 -0.74488,0.07506 -6.33148,-8.207515 -7.06029,-8.035947 -0.72876,0.171657 -2.03341,10.077374 -2.73352,10.342697 -0.70023,0.26527 -8.23996,-6.288923 -8.89947,-5.934535 -0.65968,0.354371 0.64316,10.259686 0.0353,10.697137 -0.60774,0.437469 -9.58674,-3.941891 -10.13198,-3.428883 -0.54543,0.513025 3.27699,9.742076 2.80314,10.321856 -0.47366,0.579816 -10.28046,-1.32483 -10.67455,-0.68811 -0.39385,0.636666 5.68675,8.563127 5.37934,9.245813 -0.30763,0.682651 -10.27249,1.379932 -10.48824,2.096931 -0.21576,0.716948 7.70871,6.798747 7.58834,7.537742 -0.12074,0.739053 -9.56559,3.991582 -9.58851,4.739978 -0.0227,0.748426 9.206,4.572889 9.28111,5.317855 0.0753,0.745008 -8.20656,6.331476 -8.03508,7.060263 0.17149,0.728854 10.07555,2.032388 10.34084,2.732578 0.2651,0.7002 -6.2879,8.24086 -5.9336,8.9004 0.3545,0.65964 10.25894,-0.64376 10.69621,-0.0363 0.43747,0.60769 -3.94099,9.58661 -3.42795,10.13199 0.51305,0.54538 9.74291,-3.27691 10.32278,-2.80314 0.57973,0.47376 -1.32577,10.28051 -0.68904,10.6745 0.63677,0.39403 8.56234,-5.68684 9.24493,-5.37929 0.68261,0.30754 1.37983,10.27333 2.09694,10.48912 0.71686,0.21584 6.79967,-7.70959 7.53862,-7.58922 0.73908,0.12039 3.99162,9.56564 4.74001,9.58851 0.74839,0.0229 4.57182,-9.2061 5.31689,-9.28109 0.7449,-0.0751 6.33241,8.20664 7.0612,8.03506 0.7288,-0.17166 2.03322,-10.07562 2.7335,-10.34089 0.70011,-0.26522 8.23984,6.28797 8.89948,5.93365 0.6595,-0.35444 -0.64329,-10.25876 -0.0352,-10.69627 0.60769,-0.43741 9.58744,3.94098 10.13286,3.42798 0.5452297,-0.51302 -3.27772,-9.74204 -2.80407,-10.32186 0.47371,-0.57983 10.2804767,1.32571 10.6745567,0.68904 0.39403,-0.63668 -5.6860079,-8.56312 -5.3784182,-9.24583 0.30746,-0.68269 10.271578,-1.37996 10.4873181,-2.09691 0.2157899,-0.717 -7.7087096,-6.799629 -7.5883396,-7.538626 0.12073,-0.739027 9.5655895,-3.991619 9.5885595,-4.740014 0.0227,-0.748395 -9.2060598,-4.571908 -9.2810998,-5.316926 -0.0753,-0.744956 8.2066898,-6.331387 8.0350098,-7.060286 -0.1714899,-0.728759 -10.0746786,-2.034184 -10.3399183,-2.734385 -0.26527,-0.700202 6.28792842,-8.239886 5.9336185,-8.899528 -0.35436,-0.659536 -10.2587967,0.643807 -10.6962167,0.03622 -0.43746,-0.607743 3.9401085,-9.587552 3.4270288,-10.132931 -0.5130597,-0.545379 -9.7421588,3.276896 -10.3218388,2.803153 -0.57991,-0.47376 1.32487,-10.279598 0.68811,-10.67362 -0.63659,-0.393985 -8.56216,5.686833 -9.2449,5.379322 -0.6826,-0.307546 -1.37915,-10.273334 -2.09604,-10.489173 -0.71705,-0.215785 -6.8006,7.708628 -7.53951,7.588399 -0.73894,-0.120388 -3.99162,-9.565696 -4.74001,-9.588566 z m -1.45673,14.399096 h 0.0123 c 6.52639,0.0018 12.62152,1.812885 17.7927,4.948868 l 0.0822,6.763698 7.97358,0.03534 c 5.01197,5.793641 8.0350294,13.294251 8.0350294,21.486458 0,8.147844 -2.9910694,15.610028 -7.9545494,21.390658 l -8.12911,-0.0759 -0.0696,6.84598 c -5.16823,3.1273 -11.22386,5.07372 -17.74292,5.07368 -6.36964,-1.4e-4 -12.32945,-1.72309 -17.42015,-4.71924 v -7.15884 l -8.37322,0.19624 c -5.04679,-5.80281 -8.09382,-13.328681 -8.09382,-21.552506 0,-8.197697 3.02689,-15.702945 8.04498,-21.498212 l 8.45734,-0.0035 v -7.026815 c 5.0826,-2.986288 11.02909,-4.704142 17.38487,-4.706539 z m -21.92957,7.606438 a 1.3445502,1.3445502 0 0 1 1.3446,1.344602 1.3445502,1.3445502 0 0 1 -1.3446,1.344604 1.3445502,1.3445502 0 0 1 -1.34461,-1.344604 1.3445502,1.3445502 0 0 1 1.34461,-1.344602 z m 42.90874,0 a 1.3445502,1.3445502 0 0 1 1.3446,1.344602 1.3445502,1.3445502 0 0 1 -1.3446,1.344604 1.3445502,1.3445502 0 0 1 -1.3446,-1.344604 1.3445502,1.3445502 0 0 1 1.3446,-1.344602 z m -42.90874,48.611764 a 1.3445502,1.3445502 0 0 1 1.3446,1.34461 1.3445502,1.3445502 0 0 1 -1.3446,1.3446 1.3445502,1.3445502 0 0 1 -1.34461,-1.3446 1.3445502,1.3445502 0 0 1 1.34461,-1.34461 z m 42.90874,0 a 1.3445502,1.3445502 0 0 1 1.3446,1.34461 1.3445502,1.3445502 0 0 1 -1.3446,1.3446 1.3445502,1.3445502 0 0 1 -1.3446,-1.3446 1.3445502,1.3445502 0 0 1 1.3446,-1.34461 z"
             id="path2493"
             inkscape:connector-curvature="0" />
        </g>
        <text
           xml:space="preserve"
           style="font-style:normal;font-variant:normal;font-weight:bold;font-stretch:normal;font-size:9.83004856px;line-height:6.14377975px;font-family:Rockwell;-inkscape-font-specification:'Rockwell, Bold';font-variant-ligatures:normal;font-variant-caps:normal;font-variant-numeric:normal;font-feature-settings:normal;text-align:start;letter-spacing:0px;word-spacing:0px;writing-mode:lr-tb;text-anchor:start;fill:#aa3f55;fill-opacity:1;stroke:none;stroke-width:0.2457512"
           x="68.249664"
           y="121.07501"
           id="text4601"
           transform="rotate(-24.265089)"><tspan
             sodipodi:role="line"
             id="tspan4599"
             x="68.249664"
             y="121.07501"
             style="font-style:normal;font-variant:normal;font-weight:bold;font-stretch:normal;font-size:9.83004856px;font-family:Rockwell;-inkscape-font-specification:'Rockwell, Bold';font-variant-ligatures:normal;font-variant-caps:normal;font-variant-numeric:normal;font-feature-settings:normal;text-align:start;writing-mode:lr-tb;text-anchor:start;fill:#aa3f55;fill-opacity:1;stroke-width:0.2457512">MX</tspan></text>
      </g>
    </g>
  </g>
</svg>
